<?xml version="1.0" encoding="utf-8"?>
<!-- Generator: Adobe Illustrator 16.0.0, SVG Export Plug-In . SVG Version: 6.00 Build 0)  -->
<!DOCTYPE svg PUBLIC "-//W3C//DTD SVG 1.1//EN" "http://www.w3.org/Graphics/SVG/1.1/DTD/svg11.dtd">
<svg version="1.1" id="Layer_1" xmlns="http://www.w3.org/2000/svg" xmlns:xlink="http://www.w3.org/1999/xlink" x="0px" y="0px"
	 width="16px" height="16px" viewBox="0 0 128 128" enable-background="new 0 0 128 128" xml:space="preserve">
<g>
	<path fill="#0090F2" d="M82.364,45.748C77.463,40.861,70.938,38.169,64,38.169s-13.46,2.692-18.365,7.578
		c-4.895,4.877-7.59,11.36-7.59,18.253s2.696,13.374,7.59,18.25c4.905,4.89,11.425,7.579,18.365,7.579s13.46-2.689,18.366-7.576
		c4.895-4.877,7.59-11.359,7.59-18.251c0-6.894-2.696-13.377-7.59-18.254H82.364z"/>
	<path fill="#0090F2" d="M116.985,99.132c16.488-24.633,13.826-58.229-7.989-79.965c-24.851-24.76-65.141-24.76-89.991,0
		s-24.85,64.906,0,89.667c21.816,21.736,55.531,24.393,80.257,7.96l-12.145-15.438C80.237,105.606,72.3,107.89,64,107.89
		c-11.75,0-22.8-4.56-31.114-12.843c-8.32-8.29-12.903-19.315-12.903-31.044c0-11.73,4.582-22.756,12.903-31.048
		C41.201,24.669,52.25,20.109,64,20.109c11.75,0,22.8,4.56,31.114,12.842c8.322,8.292,12.904,19.32,12.904,31.05
		c-0.002,8.259-2.285,16.169-6.537,23.019L116.985,99.132L116.985,99.132z"/>
</g>
</svg>
